<svg width="33" height="35" viewBox="0 0 33 35" fill="none" xmlns="http://www.w3.org/2000/svg">
<path d="M11.8618 31.9728V26.9127C11.8617 25.6257 12.8993 24.5799 14.1848 24.5712H18.8937C20.1853 24.5712 21.2324 25.6195 21.2324 26.9127V31.9885C21.2321 33.0813 22.1033 33.9744 23.1944 34H26.3337C29.4631 34 32 31.4601 32 28.327V13.9324C31.9833 12.6999 31.4052 11.5424 30.4304 10.7895L19.6942 2.13075C17.8133 0.623084 15.1396 0.623084 13.2587 2.13075L2.56962 10.8052C1.59105 11.5551 1.01205 12.7144 1 13.9481V28.327C1 31.4601 3.5369 34 6.66633 34H9.80557C10.9238 34 11.8304 33.0924 11.8304 31.9728" stroke="#4392CF" stroke-width="1.5" stroke-linecap="round" stroke-linejoin="round"/>
</svg>
